<svg xmlns="http://www.w3.org/2000/svg" width="210" height="92" viewBox="0 0 210 92" role="img" aria-label="Aurix Branding logo">
  <rect width="210" height="92" fill="#ffffff"/>
  <g transform="translate(35 14)">
    <path d="M7 42 30 4c2.4-4 8.2-4 10.4.2l18.2 34.5c1.2 2.4-.5 5.3-3.2 5.3h-8.3c-1.3 0-2.5-.7-3.1-1.9l-3.4-6.8H24.1l-3.6 6.9c-.6 1.1-1.8 1.8-3.1 1.8H9.2C7.3 44 6 42.6 7 42Zm22-18.2h6.8L32.5 17 29 23.8Z" fill="#285f68"/>
    <path d="M41.6 43.9c-2.1 0-3.4-2.3-2.3-4.1L58.5 9.1c.8-1.3 2.2-2.1 3.7-2.1h6.2c2.1 0 3.4 2.3 2.3 4.1L51.5 41.8c-.8 1.3-2.2 2.1-3.7 2.1h-6.2Z" fill="#285f68"/>
    <path d="M62.9 43.9c-2.1 0-3.4-2.3-2.3-4.1L80 9c.8-1.3 2.2-2 3.7-2h6c2.1 0 3.4 2.3 2.3 4.1L72.7 41.8c-.8 1.3-2.2 2.1-3.7 2.1h-6.1Z" fill="#49555a"/>
    <path d="M86.7 43.9c-2 0-3.6-1.6-3.6-3.6V10.6c0-2 1.6-3.6 3.6-3.6h5.1c2 0 3.6 1.6 3.6 3.6v29.7c0 2-1.6 3.6-3.6 3.6h-5.1Z" fill="#49555a"/>
    <path d="M96.5 43.9c-2.4 0-3.7-2.8-2.1-4.6l13.2-15-12-13.1c-1.7-1.8-.4-4.8 2.1-4.8h7.1c1.1 0 2.1.5 2.8 1.3l7.2 8.2 7.2-8.2c.7-.8 1.7-1.3 2.8-1.3h7c2.5 0 3.8 3 2.1 4.8l-12.1 13.4 13.3 14.7c1.6 1.8.3 4.6-2.1 4.6h-7.6c-1.1 0-2.1-.5-2.8-1.3l-8.1-9.3-8 9.3c-.7.8-1.7 1.3-2.8 1.3h-7.2Z" fill="#49555a"/>
    <path d="M137.8 9.3h-6.6V2.8h6.6V-3.8h6.6v6.6h6.7v6.5h-6.7v6.7h-6.6V9.3Z" fill="#df7132" transform="rotate(-12 141 6)"/>
    <path d="M151.2 18.8c0 6.8-5.5 12.3-12.4 12.3s-12.4-5.5-12.4-12.3 5.5-12.4 12.4-12.4 12.4 5.6 12.4 12.4Zm-16.9 0a4.5 4.5 0 1 0 9 0 4.5 4.5 0 0 0-9 0Z" fill="#df7132"/>
    <path d="M31.7 55.5c9.6-10.7 21-12.9 34.2-6.6 7.4 3.5 14.3 4.8 20.8 3.7 5.3-.9 10.2-3 14.6-6.3" fill="none" stroke="#df7132" stroke-width="3.6" stroke-linecap="round"/>
    <text x="37" y="67" fill="#285f68" font-family="Arial, Helvetica, sans-serif" font-size="13.5" font-weight="700" letter-spacing=".2">AURIX</text>
    <text x="81" y="67" fill="#df7132" font-family="Arial, Helvetica, sans-serif" font-size="12.3" font-weight="600">branding</text>
  </g>
</svg>
