<svg xmlns="http://www.w3.org/2000/svg" width="960" height="720" viewBox="0 0 960 720" fill="none" role="img" aria-label="Aurix brand showcase">
  <defs>
    <linearGradient id="bg" x1="110" y1="110" x2="900" y2="660" gradientUnits="userSpaceOnUse">
      <stop stop-color="#0B1020"/>
      <stop offset="0.55" stop-color="#0D1230"/>
      <stop offset="1" stop-color="#07051A"/>
    </linearGradient>
    <radialGradient id="glow1" cx="0" cy="0" r="1" gradientUnits="userSpaceOnUse" gradientTransform="translate(350 220) rotate(35) scale(420 340)">
      <stop stop-color="rgba(37,99,235,0.38)"/>
      <stop offset="1" stop-color="rgba(37,99,235,0)"/>
    </radialGradient>
    <radialGradient id="glow2" cx="0" cy="0" r="1" gradientUnits="userSpaceOnUse" gradientTransform="translate(660 420) rotate(25) scale(420 340)">
      <stop stop-color="rgba(20,184,166,0.26)"/>
      <stop offset="1" stop-color="rgba(20,184,166,0)"/>
    </radialGradient>
    <filter id="soft" x="-20%" y="-20%" width="140%" height="140%" color-interpolation-filters="sRGB">
      <feGaussianBlur stdDeviation="10" result="b"/>
      <feColorMatrix in="b" type="matrix" values="1 0 0 0 0  0 1 0 0 0  0 0 1 0 0  0 0 0 0.45 0" result="c"/>
      <feMerge>
        <feMergeNode in="c"/>
        <feMergeNode in="SourceGraphic"/>
      </feMerge>
    </filter>
  </defs>

  <rect x="0" y="0" width="960" height="720" rx="44" fill="url(#bg)"/>
  <rect x="0" y="0" width="960" height="720" rx="44" fill="url(#glow1)"/>
  <rect x="0" y="0" width="960" height="720" rx="44" fill="url(#glow2)"/>

  <g opacity="0.5">
    <path d="M70 190C240 70 330 70 500 190S760 310 890 190" stroke="rgba(255,255,255,0.14)" stroke-width="1.5"/>
    <path d="M60 420C220 290 360 300 520 420S760 540 900 420" stroke="rgba(255,255,255,0.10)" stroke-width="1.5"/>
    <path d="M90 620C260 520 340 520 510 620S760 720 890 620" stroke="rgba(255,255,255,0.08)" stroke-width="1.5"/>
  </g>

  <g filter="url(#soft)">
    <rect x="92" y="112" width="356" height="250" rx="26" fill="rgba(255,255,255,0.06)" stroke="rgba(255,255,255,0.14)"/>
    <rect x="114" y="138" width="128" height="12" rx="6" fill="rgba(255,255,255,0.32)"/>
    <rect x="114" y="162" width="210" height="10" rx="5" fill="rgba(255,255,255,0.18)"/>
    <rect x="114" y="194" width="306" height="34" rx="17" fill="rgba(37,99,235,0.20)" stroke="rgba(37,99,235,0.45)"/>
    <rect x="114" y="244" width="306" height="88" rx="18" fill="rgba(255,255,255,0.05)" stroke="rgba(255,255,255,0.10)"/>
    <rect x="136" y="266" width="186" height="10" rx="5" fill="rgba(255,255,255,0.26)"/>
    <rect x="136" y="286" width="250" height="10" rx="5" fill="rgba(255,255,255,0.16)"/>
    <rect x="136" y="306" width="214" height="10" rx="5" fill="rgba(255,255,255,0.14)"/>
  </g>

  <g filter="url(#soft)">
    <rect x="510" y="142" width="362" height="208" rx="26" fill="rgba(255,255,255,0.06)" stroke="rgba(255,255,255,0.14)"/>
    <rect x="536" y="170" width="210" height="12" rx="6" fill="rgba(255,255,255,0.26)"/>
    <rect x="536" y="200" width="286" height="10" rx="5" fill="rgba(255,255,255,0.16)"/>
    <rect x="536" y="236" width="102" height="86" rx="18" fill="rgba(20,184,166,0.16)" stroke="rgba(20,184,166,0.42)"/>
    <rect x="650" y="236" width="198" height="86" rx="18" fill="rgba(255,255,255,0.05)" stroke="rgba(255,255,255,0.10)"/>
    <circle cx="588" cy="278" r="18" fill="rgba(255,255,255,0.12)" stroke="rgba(255,255,255,0.16)"/>
    <path d="M579 279.5 586 286.5 599 270" stroke="rgba(255,255,255,0.85)" stroke-width="3" stroke-linecap="round" stroke-linejoin="round"/>
    <rect x="668" y="258" width="126" height="10" rx="5" fill="rgba(255,255,255,0.24)"/>
    <rect x="668" y="278" width="156" height="10" rx="5" fill="rgba(255,255,255,0.14)"/>
    <rect x="668" y="298" width="138" height="10" rx="5" fill="rgba(255,255,255,0.12)"/>
  </g>

  <g filter="url(#soft)">
    <rect x="192" y="410" width="576" height="226" rx="30" fill="rgba(255,255,255,0.05)" stroke="rgba(255,255,255,0.14)"/>
    <rect x="222" y="442" width="180" height="12" rx="6" fill="rgba(255,255,255,0.24)"/>
    <rect x="222" y="466" width="300" height="10" rx="5" fill="rgba(255,255,255,0.14)"/>
    <rect x="222" y="506" width="220" height="96" rx="18" fill="rgba(255,255,255,0.05)" stroke="rgba(255,255,255,0.10)"/>
    <rect x="456" y="506" width="280" height="96" rx="18" fill="rgba(37,99,235,0.12)" stroke="rgba(37,99,235,0.35)"/>
    <rect x="244" y="528" width="144" height="10" rx="5" fill="rgba(255,255,255,0.22)"/>
    <rect x="244" y="548" width="168" height="10" rx="5" fill="rgba(255,255,255,0.12)"/>
    <rect x="244" y="568" width="132" height="10" rx="5" fill="rgba(255,255,255,0.10)"/>
    <rect x="480" y="530" width="184" height="12" rx="6" fill="rgba(255,255,255,0.20)"/>
    <rect x="480" y="556" width="238" height="10" rx="5" fill="rgba(255,255,255,0.12)"/>
    <rect x="480" y="576" width="210" height="10" rx="5" fill="rgba(255,255,255,0.10)"/>
  </g>

  <g opacity="0.9">
    <circle cx="170" cy="180" r="10" fill="#2563EB"/>
    <circle cx="770" cy="172" r="8" fill="#14B8A6"/>
    <circle cx="820" cy="540" r="9" fill="rgba(255,255,255,0.22)"/>
  </g>
</svg>
