<svg xmlns="http://www.w3.org/2000/svg" width="840" height="520" viewBox="0 0 840 520" fill="none" role="img" aria-label="Web UI preview">
  <defs>
    <linearGradient id="bg" x1="0" y1="0" x2="840" y2="520" gradientUnits="userSpaceOnUse">
      <stop stop-color="#0B1020"/>
      <stop offset="1" stop-color="#07051A"/>
    </linearGradient>
    <linearGradient id="acc" x1="160" y1="130" x2="720" y2="430" gradientUnits="userSpaceOnUse">
      <stop stop-color="#2563EB"/>
      <stop offset="1" stop-color="#14B8A6"/>
    </linearGradient>
  </defs>
  <rect width="840" height="520" rx="34" fill="url(#bg)"/>
  <rect x="78" y="84" width="684" height="352" rx="28" fill="rgba(255,255,255,0.05)" stroke="rgba(255,255,255,0.14)"/>

  <rect x="114" y="116" width="300" height="16" rx="8" fill="rgba(255,255,255,0.26)"/>
  <rect x="114" y="146" width="382" height="10" rx="5" fill="rgba(255,255,255,0.12)"/>
  <rect x="114" y="166" width="318" height="10" rx="5" fill="rgba(255,255,255,0.10)"/>

  <rect x="114" y="214" width="202" height="152" rx="22" fill="rgba(255,255,255,0.04)" stroke="rgba(255,255,255,0.10)"/>
  <rect x="134" y="242" width="122" height="12" rx="6" fill="rgba(255,255,255,0.16)"/>
  <rect x="134" y="266" width="156" height="10" rx="5" fill="rgba(255,255,255,0.10)"/>
  <rect x="134" y="304" width="112" height="34" rx="17" fill="rgba(37,99,235,0.16)" stroke="rgba(37,99,235,0.42)"/>

  <rect x="340" y="214" width="422" height="152" rx="22" fill="url(#acc)" opacity="0.18" stroke="rgba(255,255,255,0.14)"/>
  <rect x="366" y="246" width="212" height="12" rx="6" fill="rgba(255,255,255,0.18)"/>
  <rect x="366" y="270" width="292" height="10" rx="5" fill="rgba(255,255,255,0.12)"/>
  <rect x="366" y="292" width="248" height="10" rx="5" fill="rgba(255,255,255,0.10)"/>
  <circle cx="690" cy="292" r="26" fill="rgba(255,255,255,0.10)" stroke="rgba(255,255,255,0.18)"/>
</svg>
